<svg width="1000" height="804" viewBox="0 0 1000 804" fill="none" xmlns="http://www.w3.org/2000/svg">
<path d="M0 30C0 13.4315 13.4315 0 30 0H970C986.569 0 1000 13.4315 1000 30V774C1000 790.569 986.569 804 970 804H30C13.4314 804 0 790.569 0 774V30Z" fill="#D9D9D9"/>
<path d="M0 20.163C2.85845 8.15719 6.24719 2.90303 20.1141 0H335.403C236.326 105.255 263.495 272.201 362.557 272.201C461.619 272.201 556.859 253.485 529.001 408.301C501.144 563.117 439.822 775.434 705 804H30C6.71032 802.005 0.109271 789.408 0 769.5V20.163Z" fill="#30B7B3"/>
</svg>
