<svg width="143" height="114" viewBox="0 0 143 114" fill="none" xmlns="http://www.w3.org/2000/svg">
<path d="M84.9022 23.3444C81.3608 29.0256 77.2498 33.7128 75.3161 47.9748C71.1281 46.6148 72.8312 49.8763 74.929 53.7478C75.7157 55.1996 76.0091 57.1343 75.9372 59.7478C75.9264 60.1404 75.8752 60.5355 75.7867 60.9181C75.382 62.6674 74.8963 64.1099 74.2765 65.2867C71.9696 69.667 69.8614 74.1784 74.6172 72.8031C75.8892 76.7604 76.8374 78.8714 79.9095 82.0024C76.0333 82.9907 72.6701 83.6927 69.5246 84.144C69.054 84.2115 68.5884 84.2734 68.1266 84.3298C61.2335 85.1719 55.206 84.791 46.7576 83.5851C46.394 82.2033 46.9704 80.7663 47.7735 79.5846C50.6105 75.4109 52.6788 72.8941 54.3466 69.242C56.2438 65.0875 58.3844 56.3228 59.7388 47.2824C60.9585 37.2028 58.0412 26.4109 57.3422 23.9379C56.6433 21.465 55.3451 15.1343 55.3451 15.1343C66.4678 15.3379 73.2837 16.6401 83.005 22.2232C83.625 22.5792 84.2568 22.9527 84.9022 23.3444Z" fill="#F8C013"/>
<path d="M109.966 42.3365C105.665 52.9528 105.223 58.8425 107.769 69.242C107.107 69.6591 106.477 70.0523 105.872 70.4261C101.367 73.2064 98.1807 74.9111 92.6909 77.3533C85.7865 55.0106 88.4579 45.7042 95.5867 30.2686L109.966 42.3365Z" fill="#F8C013"/>
<path d="M114.959 47.9748C118.971 42.9207 129.623 39.1412 137.837 36.5488C140.453 35.7233 143.437 39.6923 141.885 41.9543L133.249 54.5417C131.806 56.6446 132.078 59.4793 133.895 61.2696L141.403 68.6712C143.054 70.2986 140.752 74.6863 138.465 74.3096C129.217 72.7864 117.261 70.2679 114.16 63.8016C117.871 57.9148 118.401 54.4803 114.959 47.9748Z" fill="#F8C013"/>
<path d="M109.966 42.3365L95.5867 30.2686C101.295 27.4372 104.174 26.3119 107.969 29.2794C111.763 32.247 111.497 36.3646 109.966 42.3365Z" fill="#F8C013"/>
<path d="M55.3451 15.1343L44.4609 16.8496C54.2752 7.00557 62.335 3.06634 71.3219 5.34144C80.3089 7.61655 83.3533 12.6244 83.005 22.2232C73.2837 16.6401 66.4678 15.3379 55.3451 15.1343Z" fill="#F8C013"/>
<path d="M92.6909 77.3533C98.1807 74.9111 101.367 73.2064 105.872 70.4261C105.04 78.0415 103.675 80.7164 99.5809 82.5959C95.4869 84.4753 90.5887 83.1472 86.2004 80.1694C88.2045 79.4453 90.168 78.5749 92.6909 77.3533Z" fill="#F8C013"/>
<path d="M46.7576 83.5851C55.206 84.791 61.2335 85.1719 68.1266 84.3298C67.9297 89.8777 65.2308 92.6854 59.7388 93.0811C54.2467 93.4768 49.5524 89.6596 46.7576 83.5851Z" fill="#F8C013"/>
<path d="M105.872 70.4261C106.477 70.0523 107.107 69.6591 107.769 69.242C110.43 77.661 109.167 83.3872 101.378 86.058C93.5896 88.7288 88.7048 86.2992 82.5057 81.3356C83.8323 80.9696 85.0233 80.5947 86.2004 80.1694C90.5887 83.1472 95.4869 84.4753 99.5809 82.5959C103.675 80.7164 105.04 78.0415 105.872 70.4261Z" fill="#9B7C1C"/>
<path d="M69.5246 84.144C70.735 91.926 68.6259 96.3454 60.0383 96.3454C51.4508 96.3454 47.0179 90.9735 46.7576 83.5851C49.5524 89.6596 54.2467 93.4768 59.7388 93.0811C65.2308 92.6854 67.9297 89.8777 68.1266 84.3298C68.5884 84.2734 69.054 84.2115 69.5246 84.144Z" fill="#9B7C1C"/>
<path d="M75.3161 47.9748C80.7532 51.5505 82.0925 54.3341 82.2062 60.3395C81.5491 66.2608 80.1281 69.0994 74.6172 72.8031C69.8614 74.1784 71.9696 69.667 74.2765 65.2867C74.8963 64.1099 75.382 62.6674 75.7867 60.9181C75.8752 60.5355 75.9264 60.1404 75.9372 59.7478C76.0091 57.1343 75.7157 55.1996 74.929 53.7478C72.8312 49.8763 71.1281 46.6148 75.3161 47.9748Z" fill="#9B7C1C"/>
<path d="M109.966 42.3365C111.497 36.3646 111.763 32.247 107.969 29.2794C104.174 26.3119 101.295 27.4372 95.5867 30.2686L95.3802 30.1348C94.4433 28.7746 104.204 18.9637 111.164 24.6303C118.454 30.5654 115.388 36.7549 109.966 42.3365Z" fill="#9B7C1C"/>
<path d="M72.8198 0.296675C83.3046 1.78045 91.3357 10.1159 84.9022 23.3444C84.2568 22.9527 83.625 22.5792 83.005 22.2232C83.3533 12.6244 80.3089 7.61655 71.3219 5.34144C62.335 3.06634 54.2752 7.00557 44.4609 16.8496C54.3203 2.6764 62.335 -1.1871 72.8198 0.296675Z" fill="#9B7C1C"/>
<path d="M8.06616 66.9459L3.81563 61.6327C9.92029 63.5156 21.8753 63.6176 27.6619 60.788C28.1345 60.5569 28.7156 60.6835 29.0093 61.1199C29.2813 61.524 29.2196 62.0677 28.8406 62.3737C24.0767 66.2197 14.7478 68.8006 8.06616 66.9459Z" fill="#9B7C1C"/>
<path fill-rule="evenodd" clip-rule="evenodd" d="M49.7533 38.3798C48.2743 28.417 46.4481 23.9691 42.1643 17.2115C31.2937 20.7105 19.9324 23.9379 12.0353 30.5357C8.3794 33.59 3.53795 37.1138 0.981942 43.7214C-0.140105 46.622 -0.35789 52.6613 0.627731 55.6111C2.88255 61.3266 3.81563 61.6327 3.81563 61.6327C9.92029 63.5156 21.8753 63.6176 27.6619 60.788C28.1345 60.5569 28.7156 60.6835 29.0093 61.1199C29.2813 61.524 29.2196 62.0677 28.8406 62.3737C24.0767 66.2197 14.7478 68.8006 8.06616 66.9459C16.5672 73.6759 24.9359 76.4197 34.4754 80.4197C38.0962 76.6683 39.9008 74.6584 42.7634 71.2204C47.9484 63.0559 48.9994 58.9557 49.7533 51.9315C50.4617 46.1519 50.2691 43.3173 49.7533 38.3798ZM24.1904 38.9733C23.185 40.7732 23.2796 42.3462 23.092 43.7214C23.0315 44.1648 23.0501 44.6664 23.1416 45.2051C23.8048 49.1124 28.2963 54.974 34.1759 54.8001C40.8662 54.6023 43.1628 49.0629 43.6621 45.2051C44.1614 41.3474 41.2656 33.7307 33.9762 33.2361C29.4255 32.9274 25.8608 35.9828 24.1904 38.9733Z" fill="#F8C013"/>
<path d="M30.2815 37.1675C33.6024 36.9356 36.5724 38.182 36.872 44.0181C37.1715 49.8542 32.0789 51.9315 30.2815 51.9315C28.4841 51.9315 25.6882 50.5467 24.5898 47.2824C23.4914 44.0181 23.0862 37.7085 30.2815 37.1675Z" fill="black"/>
<path d="M55.3451 15.1343C55.3451 15.1343 56.6433 21.465 57.3422 23.9379C58.0412 26.4109 60.9585 37.2028 59.7388 47.2824C58.3844 56.3228 56.2438 65.0875 54.3466 69.242C52.6788 72.8941 50.6105 75.4109 47.7735 79.5846C46.9704 80.7663 46.394 82.2033 46.7576 83.5851C42.4583 82.7642 39.7401 82.0479 34.4754 80.4197C38.0962 76.6683 39.9008 74.6584 42.7634 71.2204C47.9484 63.0559 48.9994 58.9557 49.7533 51.9315C50.4617 46.1519 50.2691 43.3173 49.7533 38.3798C48.2743 28.417 46.4481 23.9691 42.1643 17.2115L44.4609 16.8496L55.3451 15.1343Z" fill="#DBA600"/>
<path d="M95.5867 30.2686C88.4579 45.7042 85.7865 55.0106 92.6909 77.3533C90.168 78.5749 88.2045 79.4453 86.2004 80.1694C85.0233 80.5947 83.8323 80.9696 82.5057 81.3356C81.6995 81.558 80.8432 81.7772 79.9095 82.0024C76.8374 78.8714 75.8892 76.7604 74.6172 72.8031C80.1281 69.0994 81.5491 66.2608 82.2062 60.3395C82.0925 54.3341 80.7532 51.5505 75.3161 47.9748C77.2498 33.7128 81.3608 29.0256 84.9022 23.3444L95.3802 30.1348C95.4246 30.1992 95.4929 30.2447 95.5867 30.2686Z" fill="#DBA600"/>
<path d="M114.959 47.9748C118.401 54.4803 117.871 57.9148 114.16 63.8016L107.769 69.242C105.223 58.8425 105.665 52.9528 109.966 42.3365L114.959 47.9748Z" fill="#DBA600"/>
<path fill-rule="evenodd" clip-rule="evenodd" d="M33.9762 33.2361C41.2656 33.7307 44.1614 41.3474 43.6621 45.2051C43.1628 49.0629 40.8662 54.6023 34.1759 54.8001C28.2963 54.974 23.8048 49.1124 23.1416 45.2051C23.0501 44.6664 23.0315 44.1648 23.092 43.7214C23.2796 42.3462 23.185 40.7732 24.1904 38.9733C25.8608 35.9828 29.4255 32.9274 33.9762 33.2361ZM36.872 44.0181C36.5724 38.182 33.6024 36.9356 30.2815 37.1675C23.0862 37.7085 23.4914 44.0181 24.5898 47.2824C25.6882 50.5467 28.4841 51.9315 30.2815 51.9315C32.0789 51.9315 37.1715 49.8542 36.872 44.0181Z" fill="white"/>
<path d="M9.9174 83.7057C9.9174 78.5576 14.0907 74.3843 19.2387 74.3843H89.1488C94.2968 74.3843 98.4701 78.5576 98.4701 83.7057V104.679C98.4701 109.827 94.2968 114 89.1488 114H19.2387C14.0907 114 9.9174 109.827 9.9174 104.679V83.7057Z" fill="#D9D9D9"/>
<path d="M25.8186 88.3348L22.6901 88.444L22.0534 92.2455H20.8529L21.1622 87.3708H32.494L32.7123 92.2455H31.5664L30.9662 88.444L27.8194 88.3348V99.8122L30.4023 99.9941V100.885H23.454V99.9941L25.8186 99.8122V88.3348Z" fill="black"/>
<path d="M36.1025 88.9715C35.7144 88.9715 35.4234 88.8623 35.2294 88.644C35.0354 88.4258 34.9384 88.1469 34.9384 87.8073C34.9384 87.4193 35.0536 87.098 35.284 86.8433C35.5265 86.5887 35.8539 86.4613 36.2662 86.4613C36.6785 86.4613 36.9816 86.5705 37.1756 86.7887C37.3697 87.007 37.4667 87.2859 37.4667 87.6255C37.4667 88.0377 37.3454 88.3651 37.1029 88.6077C36.8725 88.8502 36.5451 88.9715 36.1207 88.9715H36.1025ZM35.3749 92.1909L33.9925 91.8635V90.8995L36.8119 90.5539H36.8482L37.2666 90.8813V99.8486L38.7217 99.9941V100.885H33.9016V99.9941L35.3749 99.8304V92.1909Z" fill="black"/>
<path d="M41.3411 87.3162L39.8678 87.1161V86.334L42.7962 85.9884H42.8326L43.2328 86.2613V99.8486L44.7789 99.9941V100.885H39.8678V99.9941L41.3411 99.8304V87.3162Z" fill="black"/>
<path d="M45.2156 86.334L48.1258 85.9884H48.1622L48.5806 86.2613V91.7362C48.9443 91.3846 49.3748 91.0935 49.872 90.8631C50.3813 90.6327 50.9452 90.5175 51.5636 90.5175C52.2912 90.5175 52.952 90.6934 53.5462 91.045C54.1525 91.3967 54.6315 91.9424 54.9832 92.6821C55.3469 93.4217 55.5288 94.3555 55.5288 95.4832C55.5288 96.526 55.3106 97.4719 54.874 98.3207C54.4496 99.1695 53.8372 99.8425 53.0369 100.34C52.2366 100.837 51.3089 101.085 50.254 101.085C49.4173 101.085 48.6533 101.007 47.9621 100.849C47.2709 100.679 46.8526 100.528 46.7071 100.394V87.298L45.2156 87.098V86.334ZM50.8178 91.809C50.357 91.809 49.9266 91.9181 49.5264 92.1364C49.1384 92.3425 48.8231 92.579 48.5806 92.8458V99.5394C48.6533 99.7091 48.8595 99.8486 49.199 99.9577C49.5506 100.055 49.9447 100.103 50.3813 100.103C51.315 100.103 52.0668 99.7273 52.6368 98.9755C53.2067 98.2237 53.4916 97.1263 53.4916 95.6833C53.4916 94.3858 53.2431 93.4157 52.7459 92.773C52.2487 92.1303 51.606 91.809 50.8178 91.809Z" fill="black"/>
<path d="M57.119 98.157C57.119 97.0171 57.6889 96.1804 58.8288 95.6469C59.9686 95.1012 61.4116 94.8102 63.1578 94.7738V94.2645C63.1578 93.6946 63.0972 93.2459 62.9759 92.9185C62.8546 92.5911 62.6424 92.3546 62.3393 92.2091C62.0482 92.0515 61.6299 91.9727 61.0842 91.9727C60.4658 91.9727 59.908 92.0636 59.4108 92.2455C58.9258 92.4153 58.4407 92.6275 57.9557 92.8821L57.5009 91.9363C57.6586 91.8029 57.9496 91.6271 58.374 91.4088C58.7984 91.1905 59.2896 90.9965 59.8474 90.8268C60.4052 90.657 60.963 90.5721 61.5208 90.5721C62.3817 90.5721 63.0608 90.6934 63.558 90.9359C64.0673 91.1663 64.431 91.5422 64.6493 92.0636C64.8676 92.585 64.9767 93.2823 64.9767 94.1554V99.9941H66.0499V100.794C65.8074 100.855 65.4981 100.916 65.1222 100.976C64.7584 101.037 64.4371 101.067 64.1582 101.067C63.8187 101.067 63.5883 101.013 63.467 100.904C63.3457 100.807 63.2851 100.582 63.2851 100.231V99.6303C62.9213 99.9941 62.4727 100.328 61.9391 100.631C61.4177 100.934 60.8235 101.085 60.1566 101.085C59.2835 101.085 58.5559 100.837 57.9739 100.34C57.4039 99.8304 57.119 99.1028 57.119 98.157ZM60.9387 99.8486C61.254 99.8486 61.6178 99.7516 62.0301 99.5576C62.4423 99.3636 62.8183 99.1332 63.1578 98.8664V95.7378C61.836 95.7378 60.8356 95.944 60.1566 96.3563C59.4896 96.7564 59.1562 97.2839 59.1562 97.9387C59.1562 98.5935 59.3138 99.0786 59.6291 99.3939C59.9565 99.697 60.393 99.8486 60.9387 99.8486Z" fill="black"/>
<path d="M71.6621 105.796C70.11 105.796 68.9822 105.548 68.2789 105.051C67.5877 104.566 67.2421 103.893 67.2421 103.032C67.2421 102.498 67.4058 102.007 67.7332 101.558C68.0728 101.11 68.4729 100.77 68.9337 100.54C68.3759 100.225 68.097 99.7152 68.097 99.0119C68.097 98.5754 68.2243 98.1631 68.479 97.775C68.7336 97.387 69.0671 97.0899 69.4794 96.8838C68.8731 96.617 68.4062 96.235 68.0788 95.7378C67.7635 95.2407 67.6059 94.6526 67.6059 93.9735C67.6059 93.2702 67.7999 92.6578 68.188 92.1364C68.5881 91.615 69.1095 91.2148 69.7522 90.9359C70.407 90.657 71.0982 90.5175 71.8258 90.5175C73.0505 90.5175 74.0085 90.7722 74.6997 91.2815C74.8816 91.0996 75.1605 90.9238 75.5364 90.754C75.9123 90.5842 76.3125 90.4993 76.7369 90.4993H77.3553V92.1H75.3545C75.6455 92.5487 75.7911 93.0701 75.7911 93.6643C75.7911 94.3797 75.6092 95.0163 75.2454 95.5741C74.8937 96.1198 74.3965 96.5442 73.7539 96.8474C73.1233 97.1505 72.4079 97.3021 71.6075 97.3021C71.0861 97.3021 70.6193 97.2475 70.207 97.1384C70.0372 97.3082 69.8977 97.4961 69.7886 97.7023C69.6795 97.9084 69.6249 98.1085 69.6249 98.3025C69.6249 98.7391 69.7704 99.0422 70.0614 99.212C70.3525 99.3696 70.8739 99.4484 71.6257 99.4484H73.6811C74.8573 99.4484 75.7304 99.6728 76.3003 100.121C76.8703 100.57 77.1552 101.207 77.1552 102.031C77.1552 102.723 76.9067 103.353 76.4095 103.923C75.9123 104.505 75.2393 104.96 74.3905 105.287C73.5538 105.627 72.6443 105.796 71.6621 105.796ZM71.7894 96.3017C73.1718 96.3017 73.863 95.4832 73.863 93.8462C73.863 93.0337 73.6811 92.4395 73.3173 92.0636C72.9657 91.6756 72.4321 91.4816 71.7167 91.4816C71.0497 91.4816 70.5222 91.6695 70.1342 92.0454C69.7462 92.4092 69.5521 92.9973 69.5521 93.8098C69.5521 94.5737 69.734 95.18 70.0978 95.6287C70.4737 96.0774 71.0376 96.3017 71.7894 96.3017ZM71.8258 104.742C72.42 104.742 72.9778 104.651 73.4992 104.469C74.0328 104.299 74.4632 104.038 74.7906 103.687C75.118 103.347 75.2818 102.947 75.2818 102.486C75.2818 101.94 75.1362 101.54 74.8452 101.286C74.5542 101.043 73.9903 100.922 73.1536 100.922H71.0073C70.5222 100.922 70.1403 100.891 69.8614 100.831C69.3642 101.376 69.1156 101.989 69.1156 102.668C69.1156 103.347 69.3218 103.862 69.734 104.214C70.1463 104.566 70.8436 104.742 71.8258 104.742Z" fill="black"/>
<path d="M82.838 101.085C81.3707 101.085 80.249 100.606 79.4729 99.6485C78.709 98.6906 78.327 97.4113 78.327 95.8106C78.327 94.7556 78.5271 93.828 78.9273 93.0276C79.3274 92.2273 79.8852 91.6089 80.6007 91.1723C81.3282 90.7358 82.1528 90.5175 83.0744 90.5175C84.2021 90.5175 85.0752 90.8328 85.6937 91.4634C86.3242 92.0818 86.6577 92.9731 86.6941 94.1372C86.6941 94.8769 86.6516 95.4408 86.5667 95.8288H80.3096C80.3339 97.0293 80.6128 97.9994 81.1464 98.7391C81.6799 99.4666 82.4378 99.8304 83.42 99.8304C83.9051 99.8304 84.4083 99.7455 84.9297 99.5758C85.4633 99.3939 85.8755 99.1817 86.1666 98.9391L86.5122 99.7395C86.1605 100.103 85.6391 100.419 84.9479 100.685C84.2567 100.952 83.5534 101.085 82.838 101.085ZM84.6933 94.8648C84.7296 94.6101 84.7478 94.3494 84.7478 94.0826C84.7357 93.2944 84.5659 92.676 84.2385 92.2273C83.9232 91.7665 83.42 91.5361 82.7288 91.5361C82.0255 91.5361 81.4616 91.7908 81.0372 92.3001C80.6249 92.8094 80.3885 93.6643 80.3278 94.8648H84.6933Z" fill="black"/>
</svg>
